<svg width="712" height="619" viewBox="0 0 712 619" fill="none" xmlns="http://www.w3.org/2000/svg">
<path d="M178.989 168.858C179.6 168.653 180.361 168.064 181.122 167.475C180.198 167.116 179.273 166.757 178.348 166.398C179.109 165.809 179.721 165.604 180.02 164.835C181.705 164.606 182.794 165.913 184.316 164.735C184.614 163.967 183.078 163.812 182.765 163.248C182.452 162.684 182.601 162.3 182.437 161.352C183.511 161.327 184.123 161.122 185.048 161.481C186.435 162.02 187.047 161.816 188.121 161.791C190.269 161.741 192.104 161.127 194.863 160.872C194.55 160.308 194.849 159.54 194.536 158.976C195.61 158.951 196.684 158.926 197.296 158.721C197.758 158.901 197.907 158.516 198.37 158.696C200.532 159.978 202.054 158.801 203.427 158.007C204.039 157.802 204.188 157.418 204.65 157.598C207.872 157.523 210.348 159.369 213.271 160.063C213.734 160.242 214.047 160.806 214.509 160.986C216.522 162.653 218.521 162.987 220.819 162.553C223.116 162.118 225.726 162.248 228.038 163.146C229.425 163.685 230.962 163.84 232.334 163.046C232.797 163.226 233.259 163.405 234.034 164.149C236.019 163.151 238.003 162.153 240.926 162.846C242.463 163.001 243.537 162.976 244.924 163.515C247.847 164.208 250.607 163.954 253.367 163.699C257.201 163.419 261.497 163.319 265.181 163.424C267.792 163.554 270.089 163.119 272.849 162.865C275.609 162.61 278.831 162.535 281.754 163.229C281.306 164.381 279.77 164.227 279.158 164.431C276.398 164.686 273.176 164.761 269.954 164.836C268.418 164.681 267.195 165.091 265.971 165.5C263.674 165.934 261.526 165.984 258.915 165.855C255.231 165.75 251.248 166.414 247.876 166.873C247.414 166.694 247.265 167.078 247.265 167.078C246.966 167.847 247.428 168.026 247.891 168.206C249.278 168.745 250.665 169.284 251.739 169.259C251.739 169.259 251.739 169.259 252.201 169.438C254.976 170.516 257.422 169.698 259.57 169.648C263.255 169.752 267.089 169.473 270.609 168.629C271.221 168.424 271.683 168.604 272.146 168.784C275.681 169.273 278.889 167.865 282.26 167.406C283.483 166.996 284.707 166.587 286.392 166.357C288.078 166.128 289.451 165.334 290.048 163.797C290.51 163.977 290.973 164.156 291.435 164.336C291.897 164.516 292.509 164.311 292.808 163.542C293.106 162.774 292.644 162.594 291.719 162.235C292.331 162.03 292.48 161.646 292.943 161.826C295.702 161.571 298.761 160.548 301.833 160.857C304.444 160.987 306.279 160.373 308.74 160.887C309.202 161.066 309.352 160.682 309.352 160.682C311.187 160.068 312.872 159.838 315.184 160.737C317.005 158.79 319.63 160.252 321.778 160.202C322.091 160.766 321.479 160.971 321.479 160.971C321.479 160.971 321.479 160.971 321.017 160.791C318.734 162.558 315.512 162.633 312.29 162.708C311.678 162.913 311.066 163.117 310.455 163.322C309.381 163.347 308.62 163.936 307.695 163.577C306.621 163.602 305.397 164.011 304.786 164.216C304.174 164.42 302.951 164.83 302.503 165.982C302.965 166.162 302.816 166.546 303.278 166.726C305.128 167.445 307.276 167.395 308.961 167.165C312.02 166.142 315.242 166.067 318.613 165.607C320.911 165.173 323.059 165.123 325.207 165.073L325.058 165.457C325.058 165.457 325.52 165.637 325.982 165.817C325.982 165.817 325.982 165.817 326.132 165.432L325.819 164.868L325.356 164.689C325.968 164.484 326.117 164.1 326.58 164.279C328.578 164.614 330.413 164 331.786 163.206C333.159 162.413 334.382 162.003 335.456 161.978C336.53 161.953 337.753 161.544 338.977 161.135C338.977 161.135 339.126 160.75 339.738 160.546C339.275 160.366 338.813 160.187 338.351 160.007C336.203 160.057 334.204 159.723 332.518 159.952C331.906 160.157 330.832 160.182 330.221 160.387C328.386 161.001 326.238 161.05 324.239 160.716L323.776 160.537C324.687 159.563 326.536 160.282 327.447 159.309C328.058 159.104 328.67 158.899 328.67 158.899C328.656 157.567 329.73 157.542 330.804 157.517C333.265 158.031 335.1 157.417 337.397 156.983C338.009 156.778 339.083 156.753 339.545 156.933C340.008 157.112 340.619 156.907 340.768 156.523C342.753 155.525 345.05 155.091 347.661 155.22C348.735 155.195 349.958 154.786 351.032 154.761C351.644 154.556 351.957 155.12 352.419 155.3C352.881 155.48 353.955 155.455 354.418 155.634C353.194 156.044 352.433 156.632 351.359 156.657C351.836 158.17 352.149 158.734 352.761 158.529C354.297 158.684 355.521 158.274 357.206 158.045C358.281 158.02 359.042 157.431 360.429 157.97C360.429 157.97 360.891 158.149 361.04 157.765C362.875 157.151 364.71 156.537 366.858 156.487C368.38 155.309 369.767 155.848 371.617 156.567C372.527 155.593 371.453 155.618 371.14 155.054C372.826 154.825 374.049 154.416 375.586 154.57C376.66 154.545 377.734 154.52 378.509 155.264C378.971 155.443 379.434 155.623 380.045 155.418C380.806 154.829 382.343 154.984 383.104 154.395C383.715 154.191 384.327 153.986 385.103 154.729C384.491 154.934 384.491 154.934 383.879 155.139C382.506 155.932 382.67 156.881 383.759 158.188C385.594 157.574 387.742 157.524 389.577 156.91C392.024 156.092 394.022 156.426 396.647 157.888C397.423 158.632 398.497 158.607 399.258 158.018C399.407 157.633 399.556 157.249 399.705 156.865C399.243 156.685 398.781 156.506 398.781 156.506L398.93 156.121C399.542 155.917 400.153 155.712 400.616 155.892C401.69 155.867 402.302 155.662 403.376 155.637C404.599 155.228 406.285 154.998 407.821 155.153C409.357 155.307 410.431 155.282 411.968 155.437C413.504 155.592 414.415 154.618 415.638 154.209C416.712 154.184 417.935 153.775 418.86 154.134C420.859 154.468 422.694 153.854 424.066 153.061C425.319 155.316 425.781 155.496 427.765 154.498C427.915 154.114 428.377 154.293 428.377 154.293C428.377 154.293 428.228 154.678 428.69 154.857L429.302 154.652C430.525 154.243 431.599 154.218 432.822 153.809C434.508 153.579 435.895 154.118 437.282 154.657C437.745 154.837 438.058 155.401 437.908 155.785C438.221 156.349 438.385 157.297 438.549 158.245C437.788 158.834 437.489 159.603 436.728 160.192C436.579 160.576 436.743 161.524 437.817 161.499C438.279 161.679 438.279 161.679 438.891 161.474C440.577 161.245 442.262 161.015 443.486 160.606C444.858 159.812 446.395 159.967 447.632 160.89C449.93 160.456 451.765 159.842 454.226 160.356C456.673 159.537 459.745 159.846 462.341 158.644C462.192 159.028 462.505 159.592 462.356 159.976C462.669 160.54 463.131 160.72 463.907 161.463C465.443 161.618 467.129 161.388 468.665 161.543C468.978 162.107 468.829 162.491 469.142 163.055C469.455 163.619 470.23 164.363 470.842 164.158C471.916 164.133 472.677 163.544 473.452 164.288C471.468 165.286 469.171 165.72 466.71 165.206C464.249 164.692 461.951 165.126 459.803 165.176C459.191 165.381 458.117 165.406 457.968 165.79C456.909 167.148 455.834 167.173 454.298 167.018C452.15 167.068 449.853 167.503 448.494 169.629C448.196 170.397 448.509 170.961 449.433 171.321C450.821 171.86 451.895 171.835 453.282 172.373C453.893 172.169 454.654 171.58 455.266 171.375C457.4 169.993 460.01 170.122 462.784 171.2C463.247 171.38 464.171 171.739 464.783 171.534C465.395 171.33 465.544 170.946 466.305 170.357C466.454 169.972 466.454 169.972 466.604 169.588C467.066 169.768 467.066 169.768 467.528 169.947C469.079 171.434 470.765 171.205 472.6 170.591C473.212 170.386 473.361 170.002 473.973 169.797C474.584 169.593 474.734 169.208 475.196 169.388C478.269 169.697 479.776 167.187 482.074 166.753L482.372 165.984C482.372 165.984 481.597 165.24 481.448 165.625C480.374 165.65 479.299 165.675 478.539 166.264C477.927 166.468 477.315 166.673 476.704 166.878C476.077 165.75 475.302 165.006 475.138 164.058C477.436 163.624 480.046 163.753 482.03 162.755C482.642 162.55 483.104 162.73 484.179 162.705C485.864 162.475 487.55 162.246 489.086 162.4C490.16 162.375 490.921 161.786 492.159 162.71L493.233 162.685C493.994 162.096 494.904 161.122 495.665 160.533C496.277 160.329 497.202 160.688 497.813 160.483C499.037 160.074 499.335 159.306 500.096 158.717C501.021 159.076 502.095 159.051 502.707 158.846C502.408 159.615 502.572 160.563 501.811 161.152C500.751 162.51 501.228 164.022 502.018 166.098C502.495 167.61 503.121 168.738 503.598 170.25C504.522 170.609 505.447 170.969 506.208 170.38C507.581 169.586 508.953 168.792 510.788 168.179C512.176 168.717 511.578 170.255 512.354 170.998C513.278 171.358 514.203 171.717 515.59 172.256C515.455 173.973 515.932 175.485 513.948 176.483C513.336 176.688 513.649 177.252 513.038 177.456C514.126 178.764 515.662 178.918 516.587 179.278C516.9 179.842 517.213 180.405 517.526 180.969C517.704 183.25 520.016 184.148 522.015 184.483C523.551 184.637 525.401 185.356 526.788 185.895C527.713 186.254 529.249 186.409 529.861 186.204C531.696 185.59 533.381 185.361 534.441 184.003C535.351 183.03 537.649 182.595 538.872 182.186C541.646 183.264 541.362 185.365 542.913 186.852C541.839 186.877 540.615 187.287 540.004 187.491C539.705 188.26 539.869 189.208 538.183 189.438C537.571 189.642 537.422 190.027 537.586 190.975C537.75 191.923 538.212 192.103 539.137 192.462C540.062 192.821 540.673 192.617 541.598 192.976C543.597 193.31 544.82 192.901 546.193 192.107C546.954 191.518 547.565 191.314 548.177 191.109C549.4 190.7 549.699 189.931 551.072 189.138C552.146 189.113 553.07 189.472 554.607 189.627C555.204 188.089 557.039 187.475 559.038 187.81C559.963 188.169 560.574 187.964 561.648 187.939C564.259 188.069 564.87 187.864 566.228 185.738C565.602 184.61 564.827 183.867 563.739 182.559C564.649 181.586 565.097 180.433 565.858 179.844C565.232 178.716 564.456 177.973 563.681 177.229C562.906 176.486 561.668 175.562 560.892 174.819C559.655 173.896 558.73 173.536 557.03 172.433C556.717 171.87 556.403 171.306 555.941 171.126C555.628 170.562 555.166 170.382 554.853 169.818C555.151 169.05 555.45 168.281 555.286 167.333C557.285 167.667 559.134 168.386 560.074 170.078C560.074 170.078 560.387 170.642 560.849 170.821C562.385 170.976 563.011 172.104 563.638 173.232C563.951 173.796 564.875 174.155 565.188 174.719C566.575 175.258 567.813 176.181 569.2 176.72C569.663 176.9 570.125 177.079 570.587 177.259C572.124 177.413 573.362 178.337 574.749 178.876C575.673 179.235 575.986 179.799 576.613 180.927C576.314 181.695 575.553 182.284 575.404 182.669C575.254 183.053 576.03 183.796 576.343 184.36C576.194 184.745 575.731 184.565 575.582 184.949C574.358 185.359 573.747 185.563 574.224 187.075C574.387 188.024 574.551 188.972 574.252 189.74C573.655 191.278 572.745 192.251 572.148 193.788C572.461 194.352 573.698 195.275 573.25 196.428C573.101 196.812 573.414 197.376 573.877 197.556C575.114 198.479 575.741 199.607 575.904 200.555C576.217 201.119 576.53 201.683 577.142 201.479C578.067 201.838 578.365 201.069 578.515 200.685C578.664 200.301 578.963 199.532 578.65 198.968C578.799 198.584 578.948 198.2 578.784 197.251C581.395 197.381 582.483 198.688 584.034 200.176C584.81 200.919 584.973 201.867 585.599 202.995C585.152 204.148 585.151 204.148 586.404 206.404C589.626 206.329 592.848 206.254 596.219 205.795C596.682 205.974 597.457 206.718 597.919 206.897C599.62 208 600.231 207.796 601.604 207.002C601.753 206.618 602.365 206.413 602.514 206.029C603.901 206.568 605.751 207.286 607.422 205.724C607.586 206.672 607.436 207.057 607.436 207.057C606.377 208.414 605.63 210.336 603.646 211.334C603.034 211.539 602.885 211.923 602.736 212.307C601.064 213.869 600.467 215.407 600.645 217.687C600.347 218.456 601.122 219.199 601.286 220.148C600.077 221.889 598.555 223.067 596.571 224.066C595.198 224.859 593.676 226.037 592.766 227.01C591.706 228.368 590.796 229.341 588.961 229.955C588.349 230.16 587.588 230.749 587.289 231.517C586.23 232.875 587.02 234.951 586.422 236.488C586.124 237.257 586.75 238.384 587.838 239.692L588.151 240.256C587.867 242.357 586.808 243.715 585.599 245.456C585.3 246.225 584.077 246.634 583.003 246.659C581.929 246.684 580.855 246.709 579.169 246.939C576.409 247.194 574.425 248.192 573.529 250.498C573.38 250.882 573.38 250.882 573.23 251.266C573.23 251.266 573.23 251.266 573.081 251.65C573.856 252.394 574.483 253.522 575.258 254.266C573.885 255.059 572.662 255.468 571.901 256.057C571.453 257.21 572.84 257.749 573.004 258.697C572.854 259.082 572.392 258.902 572.243 259.286L572.392 258.902C571.78 259.107 570.856 258.747 570.393 258.568C569.931 258.388 569.931 258.388 569.469 258.208C569.319 258.593 569.319 258.593 569.17 258.977C568.26 259.95 567.022 259.027 566.112 260C565.962 260.385 565.664 261.153 566.439 261.897C567.677 262.82 568.751 262.795 570.287 262.95C570.899 262.745 570.899 262.745 571.511 262.54C573.033 261.362 575.017 260.364 576.39 259.571C577.762 258.777 579.448 258.547 581.134 258.318C582.208 258.293 583.132 258.652 583.908 259.396C584.37 259.575 584.52 259.191 584.982 259.371L585.295 259.934C584.086 261.676 585.025 263.368 584.89 265.085C584.279 265.29 584.279 265.29 583.667 265.494C582.593 265.519 582.757 266.467 582.458 267.236C581.384 267.261 580.459 266.902 579.549 267.875C579.549 267.875 579.087 267.695 578.937 268.08C578.937 268.08 578.937 268.08 579.4 268.259C579.4 268.259 579.549 267.875 580.011 268.055C580.474 268.234 580.787 268.798 581.249 268.978C580.638 269.183 580.026 269.387 579.414 269.592C578.802 269.796 578.653 270.181 578.354 270.949C578.056 271.718 577.608 272.871 576.072 272.716C575.46 272.921 574.848 273.125 574.699 273.51C574.863 274.458 575.026 275.406 575.653 276.534C575.653 276.534 575.19 276.354 575.041 276.739L575.19 276.354C575.653 276.534 575.652 276.534 575.965 277.098C576.279 277.662 576.741 277.842 577.502 277.253C577.502 277.253 577.964 277.432 578.114 277.048C577.964 277.432 577.203 278.021 577.054 278.406C576.442 278.61 575.831 278.815 575.681 279.199C576.009 281.096 576.009 281.096 574.636 281.889C573.875 282.478 573.427 283.631 572.353 283.656C571.742 283.861 572.218 285.373 572.83 285.168C573.904 285.143 575.142 286.066 575.455 286.63C575.306 287.015 575.007 287.783 574.858 288.168C574.395 287.988 574.395 287.988 573.933 287.808C573.158 287.065 572.382 286.321 571.009 287.115C570.86 287.499 571.322 287.679 571.024 288.447C569.95 288.472 568.876 288.497 567.339 288.343C566.891 289.495 567.667 290.239 567.98 290.803C567.831 291.187 567.532 291.956 567.383 292.34C567.233 292.724 566.771 292.545 566.771 292.545C565.085 292.774 564.026 294.132 563.428 295.669C563.13 296.438 564.368 297.361 564.979 297.156C566.814 296.542 569.126 297.441 571.125 297.775C572.199 297.75 572.945 295.828 575.257 296.727C574.66 298.264 573.75 299.237 571.602 299.287C571.467 301.004 574.689 300.929 574.091 302.466C572.555 302.311 571.168 301.772 570.542 300.645C570.229 300.081 569.304 299.721 569.006 300.49C569.319 301.054 569.632 301.618 569.795 302.566C570.108 303.13 569.959 303.514 570.422 303.694C572.733 304.592 573.374 307.053 575.536 308.335C575.999 308.515 576.162 309.463 575.551 309.668C574.477 309.693 573.865 309.897 572.955 310.87C572.806 311.255 572.044 311.844 571.433 312.048C573.759 314.279 575.623 316.33 578.397 317.408C578.859 317.588 579.322 317.767 579.933 317.563C581.619 317.333 583.767 317.283 585.304 317.438C585.915 317.233 586.378 317.413 586.989 317.208C588.824 316.594 590.212 317.133 591.151 318.825C591.464 319.389 592.09 320.517 592.716 321.645C592.567 322.029 592.268 322.797 591.507 323.386C591.82 323.95 592.282 324.13 592.595 324.694C597.026 322.877 601.607 320.676 606.5 319.039C607.126 320.167 607.752 321.294 608.378 322.422C609.602 322.013 611.287 321.783 611.899 321.579C612.361 321.758 612.362 321.758 612.824 321.938C613.45 323.066 613.763 323.63 614.389 324.758C615.015 325.886 616.239 325.476 616.865 326.604C617.178 327.168 618.714 327.323 619.49 328.066C619.653 329.015 618.892 329.603 618.444 330.756C618.146 331.525 617.385 332.114 617.086 332.882C616.489 334.42 615.579 335.393 613.744 336.007C611.162 338.542 607.641 339.386 604.434 340.793C603.822 340.998 603.21 341.203 602.912 341.971C602.314 343.508 601.404 344.482 599.569 345.096C599.569 345.096 599.42 345.48 598.957 345.3C597.585 346.094 597.599 347.426 598.837 348.35C599.299 348.529 599.612 349.093 600.075 349.273C599.925 349.657 599.463 349.477 599.314 349.862C599.328 351.194 598.88 352.347 598.119 352.936C598.596 354.448 599.535 356.14 600.012 357.652C601.399 358.191 602.786 358.73 604.337 360.217C604.188 360.602 604.038 360.986 603.427 361.191C602.815 361.395 601.592 361.804 600.98 362.009C599.757 362.418 598.996 363.007 598.697 363.776C599.01 364.34 599.323 364.904 600.098 365.647C599.337 366.236 598.726 366.441 598.577 366.825C598.278 367.594 599.679 369.465 600.604 369.825C601.067 370.004 601.529 370.184 601.678 369.8C603.051 369.006 604.9 369.725 606.138 370.648C606.913 371.391 608.301 371.93 609.076 372.674C609.688 372.469 610.762 372.444 611.373 372.24C612.611 373.163 612.775 374.111 613.088 374.675C612.789 375.444 611.865 375.084 611.253 375.289C609.418 375.903 608.045 376.696 605.733 375.798C605.271 375.619 604.659 375.823 604.048 376.028C602.824 376.437 601.75 376.462 600.527 376.872C599.915 377.076 599.154 377.665 598.543 377.87C598.095 379.023 600.093 379.357 598.721 380.151C599.183 380.33 599.034 380.714 599.496 380.894C600.883 381.433 602.42 381.588 603.643 381.178C606.403 380.924 608.7 380.489 611.624 381.183C614.547 381.877 617.307 381.622 620.216 380.983C621.29 380.958 622.364 380.933 623.438 380.908C624.974 381.063 625.899 381.422 627.436 381.576C628.51 381.551 628.972 381.731 629.897 382.09C629.747 382.475 629.136 382.679 629.598 382.859C630.537 384.551 630.253 386.652 632.266 388.319C633.653 388.858 635.04 389.397 635.951 388.423C636.861 387.45 637.16 386.682 635.907 384.426C636.981 384.401 637.593 384.196 638.219 385.324C638.532 385.888 638.845 386.452 639.308 386.632C639.621 387.195 639.934 387.759 640.247 388.323C639.948 389.092 639.649 389.861 639.351 390.629C639.052 391.398 638.754 392.166 639.38 393.294C639.693 393.858 639.543 394.242 639.857 394.806C640.184 396.703 640.049 398.42 639.303 400.341C637.795 402.851 636.287 405.362 634.467 407.308C632.497 409.639 631.139 411.765 629.631 414.276C628.721 415.249 627.811 416.222 626.9 417.195C624.617 418.962 622.797 420.909 620.514 422.675C618.693 424.622 615.948 426.209 614.277 427.771C611.233 430.127 607.563 431.355 604.206 433.147C602.072 434.529 599.476 435.732 597.805 437.294C595.522 439.061 592.463 440.084 589.867 441.287C586.809 442.311 584.675 443.693 582.392 445.46C582.243 445.844 581.781 445.665 581.631 446.049C580.273 448.175 580.273 448.175 578.289 449.173C578.139 449.557 578.453 450.121 578.453 450.121C578.616 451.07 578.318 451.838 577.094 452.248C575.871 452.657 574.498 453.45 573.588 454.424C572.827 455.013 572.678 455.397 572.841 456.345C573.005 457.293 572.244 457.882 571.633 458.087C570.409 458.496 569.648 459.085 568.425 459.495C565.978 460.313 563.069 460.952 560.459 460.822C559.996 460.643 559.847 461.027 559.385 460.847C557.386 460.513 555.551 461.127 553.865 461.357C552.03 461.971 549.882 462.021 548.047 462.635C545.138 463.274 542.378 463.528 540.245 464.911C537.634 464.781 536.112 465.959 533.815 466.393C531.518 466.828 529.683 467.442 527.848 468.056C524.789 469.079 521.731 470.102 518.672 471.125C516.226 471.944 513.317 472.583 510.721 473.786C509.96 474.375 508.572 473.836 507.662 474.809C506.901 475.398 505.678 475.807 504.455 476.216C503.231 476.626 502.47 477.215 501.247 477.624C500.635 477.829 500.024 478.033 499.412 478.238C496.503 478.877 494.369 480.259 491.922 481.078C487.043 484.048 480.912 484.762 475.557 486.219C472.036 487.063 468.515 487.906 464.994 488.75C464.084 489.723 462.235 489.005 460.862 489.798C459.952 490.772 457.953 490.437 456.73 490.847C455.506 491.256 453.82 491.485 452.597 491.895C451.374 492.304 450.15 492.713 449.389 493.302C447.256 494.685 444.809 495.503 442.512 495.938C438.991 496.781 435.933 497.805 432.561 498.264C431.964 499.801 431.054 500.774 429.368 501.004C425.847 501.848 422.177 503.075 418.656 503.919C418.194 503.739 418.045 504.124 417.582 503.944C414.062 504.788 410.079 505.452 406.558 506.295C403.649 506.934 400.74 507.573 397.98 507.828C397.055 507.468 396.757 508.237 396.145 508.442C395.832 507.878 395.832 507.878 395.22 508.082C395.071 508.467 395.071 508.467 394.922 508.851C390.789 509.899 386.806 510.563 382.211 511.432C377.005 512.505 372.112 514.142 366.592 514.652C365.518 514.677 364.145 515.47 362.922 515.879C361.699 516.289 361.087 516.493 360.013 516.518C358.79 516.928 357.253 516.773 355.568 517.003C352.047 517.846 348.213 518.126 344.23 518.79C340.859 519.249 337.338 520.093 333.966 520.552C331.669 520.986 329.372 521.421 326.761 521.291C325.687 521.316 324.151 521.161 323.077 521.186C322.465 521.391 321.54 521.032 321.391 521.416C320.481 522.389 319.556 522.03 318.482 522.055C316.334 522.105 316.334 522.105 316.156 519.824C316.917 519.235 317.991 519.21 318.752 518.621C320.124 517.828 321.661 517.983 323.51 518.701C323.973 518.881 324.897 519.24 325.509 519.035C328.418 518.396 330.716 517.962 333.162 517.144C333.162 517.144 333.162 517.143 333.774 516.939C334.072 516.17 334.222 515.786 334.058 514.838C333.596 514.658 333.596 514.658 333.133 514.478C328.837 514.578 325.003 514.858 320.707 514.958C317.948 515.213 315.486 514.699 312.727 514.954C310.579 515.004 308.431 515.054 306.282 515.104C305.208 515.129 304.746 514.949 303.672 514.974C303.821 514.59 303.821 514.59 303.971 514.205C304.12 513.821 304.269 513.437 303.807 513.257C303.494 512.693 303.032 512.514 302.569 512.334C302.107 512.154 301.495 512.359 301.033 512.179C298.422 512.05 296.274 512.1 293.799 510.253C293.649 510.637 292.888 511.226 292.739 511.611C289.055 511.506 285.37 511.401 281.074 511.501C280.462 511.706 279.538 511.347 278.613 510.988C277.688 510.628 277.375 510.064 276.45 509.705C275.988 509.525 274.914 509.55 273.989 509.191C274.601 508.986 274.75 508.602 274.9 508.218C275.661 507.629 276.272 507.424 276.109 506.476C275.795 505.912 276.094 505.144 276.706 504.939C278.541 504.325 278.377 503.377 278.363 502.044C278.512 501.66 278.661 501.276 278.348 500.712C277.722 499.584 276.335 499.045 275.097 498.122C274.635 497.942 274.173 497.762 273.561 497.967C272.024 497.812 270.95 497.837 269.727 498.247C269.265 498.067 268.191 498.092 267.728 497.912C266.804 497.553 266.804 497.553 266.476 495.657C268.311 495.043 269.684 494.249 269.356 492.353C269.029 490.456 268.701 488.56 265.778 487.866C267.464 487.636 268.075 487.432 268.836 486.843C270.209 486.049 270.194 484.717 268.807 484.178C267.42 483.639 265.571 482.92 263.885 483.15C262.349 482.995 261.125 483.405 259.44 483.634C258.977 483.455 258.515 483.275 257.74 482.531C257.889 482.147 257.426 481.967 257.426 481.967C258.486 480.61 258.934 479.457 259.994 478.1C258.294 476.997 257.817 475.484 257.952 473.768C258.101 473.383 258.4 472.615 258.862 472.794C260.085 472.385 260.533 471.232 260.981 470.079C260.668 469.515 260.355 468.951 260.042 468.388C255.582 467.539 251.435 467.255 247.139 467.355C246.065 467.38 244.379 467.61 243.305 467.635C242.992 467.071 243.142 466.687 243.604 466.866C244.678 466.841 245.29 466.637 246.364 466.612C248.049 466.382 249.273 465.973 249.721 464.82C249.408 464.256 249.244 463.307 248.931 462.744C249.08 462.359 249.379 461.591 249.99 461.386C251.214 460.977 251.512 460.208 251.349 459.26C251.498 458.876 251.647 458.491 251.797 458.107C252.871 458.082 254.094 457.673 254.706 457.468C255.78 457.443 256.541 456.854 256.839 456.086C257.138 455.317 256.825 454.753 256.199 453.625C254.662 453.471 253.126 453.316 252.216 454.289C251.305 455.262 249.62 455.492 248.233 454.953C246.383 454.235 245.011 455.028 244.1 456.001C243.026 456.026 242.564 455.847 241.49 455.872C240.565 455.512 239.953 455.717 238.73 456.126C237.507 456.536 236.433 456.561 234.896 456.406C231.062 456.686 227.378 456.581 223.544 456.861C222.47 456.886 221.709 457.475 220.635 457.5C219.561 457.525 218.8 458.114 218.025 457.37C217.562 457.19 216.951 457.395 216.951 457.395C214.817 458.778 211.744 458.468 209.447 458.903C205.464 459.567 201.63 459.846 197.796 460.126C196.722 460.151 195.499 460.56 194.276 460.969C193.664 461.174 192.441 461.583 191.829 461.788C191.217 461.993 190.755 461.813 190.456 462.582C190.307 462.966 189.695 463.171 189.233 462.991C187.696 462.836 185.698 462.502 183.699 462.168C181.7 461.833 180.164 461.679 178.478 461.908C177.404 461.933 176.181 462.343 174.794 461.804C174.943 461.42 175.092 461.035 175.853 460.446C173.378 458.6 171.364 456.933 167.993 457.392C167.68 456.828 166.905 456.085 166.591 455.521C165.667 455.162 164.593 455.187 163.981 455.391C163.369 455.596 162.445 455.237 162.132 454.673C161.356 453.929 160.894 453.749 159.82 453.774C158.283 453.62 157.209 453.645 155.972 452.722C155.346 451.594 155.644 450.825 156.405 450.236C157.465 448.879 157.913 447.726 157.585 445.829C157.421 444.881 157.72 444.113 158.63 443.139C160.302 441.577 159.989 441.013 158.587 439.142C158.274 438.578 157.499 437.834 156.887 438.039C155.962 437.68 154.888 437.705 154.276 437.909C153.814 437.73 153.203 437.934 152.591 438.139C149.369 438.214 149.205 437.266 148.728 435.753C148.415 435.19 148.415 435.19 148.102 434.626C145.627 432.779 143.315 431.881 140.406 432.52C139.794 432.724 139.332 432.545 138.869 432.365C137.02 431.647 135.483 431.492 133.485 431.158C130.874 431.028 129.025 430.31 127.773 428.054C126.997 427.31 126.684 426.746 125.297 426.207C124.372 425.848 124.209 424.9 124.97 424.311C125.88 423.338 127.252 422.544 128.476 422.135C129.237 421.546 129.535 420.777 129.372 419.829C129.208 418.881 129.507 418.112 129.805 417.344C129.94 415.627 129.314 414.499 127.465 413.78C125.615 413.062 124.079 412.907 122.229 412.188C121.305 411.829 120.842 411.65 119.918 411.29C118.68 410.367 116.83 409.648 115.443 409.11C114.981 408.93 114.056 408.571 113.281 407.827C111.879 405.956 110.179 404.853 109.389 402.777C108.763 401.649 108.137 400.521 106.75 399.982C106.288 399.802 105.974 399.238 105.661 398.674C105.483 396.394 106.543 395.036 108.378 394.422C109.139 393.833 109.9 393.244 110.661 392.655C111.422 392.066 112.645 391.657 113.719 391.632C114.943 391.223 115.704 390.634 116.763 389.276C113.989 388.198 111.514 386.352 108.455 387.375C107.53 387.016 107.217 386.452 106.755 386.272C107.054 385.504 107.203 385.119 107.352 384.735C107.8 383.582 108.711 382.609 108.696 381.277C108.682 379.944 109.443 379.355 110.353 378.382C113.859 376.206 117.679 374.594 121.185 372.417C121.946 371.828 123.482 371.983 124.243 371.394C125.467 370.985 125.765 370.216 124.528 369.293C124.214 368.729 123.29 368.37 122.827 368.19C119.456 368.65 117.337 371.365 113.652 371.26C113.488 370.312 112.862 369.184 112.699 368.236C112.087 368.44 111.625 368.261 111.013 368.465C108.566 369.284 106.582 370.282 104.285 370.716C103.061 371.126 102.3 371.715 102.315 373.047C102.016 373.816 101.867 374.2 101.568 374.969C101.419 375.353 101.269 375.737 101.582 376.301C101.746 377.249 101.134 377.454 100.374 378.043C99.7618 378.248 98.8371 377.888 98.5241 377.324C97.898 376.197 97.1225 375.453 96.4964 374.325C97.5561 372.968 97.0793 371.455 98.6013 370.277C98.7506 369.893 99.0492 369.125 98.7361 368.561C98.2593 367.048 98.8567 365.511 99.767 364.538C99.767 364.538 99.767 364.538 99.9163 364.154C98.8279 362.846 99.738 361.873 99.2612 360.361C98.7989 360.181 98.4859 359.617 98.0235 359.438C95.548 357.591 95.548 357.591 92.6389 358.23C92.4752 357.282 93.0869 357.077 93.6985 356.873C95.5336 356.259 96.7568 355.849 98.5919 355.235C101.65 354.212 104.709 353.189 108.229 352.345C111.899 351.117 115.42 350.274 118.628 348.866C119.24 348.662 119.389 348.277 119.389 348.277C119.538 347.893 119.076 347.713 118.613 347.534C117.689 347.175 116.764 346.815 115.69 346.84C115.228 346.661 114.303 346.301 113.691 346.506C113.378 345.942 113.378 345.942 113.527 345.558C113.214 344.994 112.901 344.43 112.588 343.866C111.813 343.122 110.739 343.147 110.127 343.352C108.904 343.761 108.143 344.35 106.92 344.759C106.159 345.348 105.085 345.373 104.324 345.962C102.489 346.576 100.803 346.806 98.9677 347.42C97.1327 348.034 96.0732 349.391 94.7005 350.185C93.9395 350.774 93.1785 351.363 91.7914 350.824C90.5537 349.901 90.3898 348.952 90.6884 348.184C90.9871 347.415 91.5988 347.211 92.6729 347.186C93.8962 346.776 95.1196 346.367 96.3429 345.958C98.178 345.344 99.6999 344.166 101.699 344.5C102.31 344.296 102.922 344.091 103.534 343.886C104.145 343.682 104.757 343.477 105.369 343.272C107.367 343.607 108.278 342.633 109.65 341.84C110.874 341.431 111.322 340.278 110.696 339.15C110.532 338.202 109.906 337.074 109.28 335.946C108.653 334.818 107.729 334.459 106.342 333.92C105.865 332.408 106.313 331.255 107.223 330.281C108.133 329.308 109.655 328.13 111.654 328.465C112.728 328.44 113.34 328.235 114.414 328.21C116.711 327.776 118.397 327.546 120.709 328.444C121.171 328.624 121.783 328.419 122.245 328.599C126.079 328.319 129.913 328.039 133.747 327.76C135.895 327.71 137.73 327.096 139.878 327.046C144.786 326.741 149.38 325.873 153.975 325.004C156.272 324.57 158.57 324.135 160.704 322.753C161.315 322.548 161.465 322.164 161.763 321.395C159.601 320.113 157.289 319.215 154.842 320.033C153.156 320.263 151.784 321.056 150.084 319.954C150.695 319.749 151.919 319.34 152.53 319.135C154.216 318.905 156.051 318.291 157.737 318.062C160.646 317.423 163.242 316.22 166.151 315.581C168.448 315.147 170.433 314.148 172.417 313.15C173.79 312.357 175.162 311.563 176.848 311.333C178.071 310.924 178.071 310.924 179.131 309.567C178.818 309.003 178.356 308.823 177.281 308.848C173.448 309.128 169.465 309.792 165.795 311.019C163.96 311.633 162.274 311.863 160.901 312.657C160.289 312.861 159.678 313.066 159.215 312.886C157.067 312.936 155.232 313.55 152.935 313.985C150.026 314.623 147.579 315.442 144.357 315.517C144.044 314.953 144.656 314.748 144.656 314.748C147.102 313.93 149.549 313.111 151.996 312.293C152.608 312.088 153.219 311.883 154.293 311.858C157.053 311.604 159.5 310.785 161.32 308.839C161.47 308.454 162.693 308.045 163.305 307.84C163.454 307.456 163.603 307.072 164.215 306.867C164.051 305.919 162.977 305.944 162.365 306.149C160.68 306.378 158.845 306.992 157.621 307.402C156.249 308.195 154.563 308.425 153.027 308.27C151.953 308.295 150.729 308.704 149.655 308.729C149.043 308.934 148.581 308.754 147.656 308.395C148.567 307.422 150.252 307.192 151.013 306.603C152.237 306.194 153.46 305.785 153.908 304.632C153.595 304.068 153.133 303.888 152.521 304.093C151.447 304.118 150.835 304.323 150.223 304.527C148.538 304.757 146.703 305.371 144.555 305.421C143.481 305.446 142.869 305.65 141.646 306.06C139.348 306.494 137.513 307.108 135.678 307.722C131.695 308.386 128.487 309.793 124.504 310.457C123.893 310.662 122.669 311.071 121.745 310.712C121.282 310.532 120.82 310.353 120.969 309.969C120.656 309.405 120.806 309.02 120.955 308.636C121.104 308.252 121.716 308.047 122.327 307.842C125.848 306.999 128.743 305.027 132.264 304.184C133.487 303.774 134.71 303.365 135.621 302.392C136.382 301.803 137.605 301.394 138.216 301.189C139.44 300.78 141.275 300.166 142.961 299.936C144.646 299.706 145.557 298.733 146.154 297.196C145.841 296.632 145.065 295.889 144.752 295.325C144.29 295.145 144.29 295.145 143.678 295.35C138.323 296.807 133.116 297.88 127.76 299.338C127.149 299.543 126.686 299.363 126.075 299.568C124.389 299.797 123.927 299.618 123.137 297.541C126.807 296.314 130.014 294.906 132.283 291.807C131.821 291.627 131.358 291.447 131.358 291.447C128.285 291.138 125.839 291.957 123.079 292.211C121.393 292.441 120.17 292.85 118.634 292.696C119.082 291.543 121.23 291.493 121.991 290.904C124.587 289.701 127.496 289.062 129.779 287.295C130.54 286.706 131.763 286.297 132.375 286.092C134.21 285.478 136.045 284.864 136.329 282.763C136.628 281.995 136.926 281.226 137.225 280.458C136.435 278.381 134.585 277.663 132.437 277.713C130.289 277.763 128.291 277.429 126.441 276.71C125.516 276.351 124.442 276.376 123.368 276.401C121.683 276.63 119.833 275.912 118.894 274.22C118.119 273.476 117.493 272.349 117.18 271.785C116.553 270.657 115.778 269.913 115.152 268.785C114.078 268.81 113.616 268.631 113.004 268.835C111.78 269.245 110.393 268.706 109.156 267.782C109.917 267.193 110.215 266.425 110.976 265.836C110.499 264.324 110.023 262.812 110.62 261.274C110.919 260.506 110.605 259.942 110.442 258.994C110.427 257.661 110.875 256.508 112.099 256.099C112.71 255.894 113.62 254.921 114.232 254.716C114.993 254.127 114.516 252.615 113.592 252.256C112.667 251.897 111.593 251.922 110.981 252.126C109.445 251.972 108.221 252.381 106.685 252.226C104.999 252.456 103.463 252.301 102.076 251.763C100.689 251.224 99.3018 250.685 99.2873 249.352C99.1236 248.404 97.5872 248.249 96.9611 247.121C97.8714 246.148 98.7817 245.175 100.005 244.766C101.84 244.152 103.213 243.358 103.348 241.641C102.572 240.898 101.946 239.77 101.171 239.026C99.4705 237.923 97.7993 239.486 95.3382 238.972C96.5615 238.562 97.3225 237.973 98.0835 237.384L98.2328 237C98.517 234.899 98.2039 234.335 95.8921 233.437C95.4297 233.257 94.9674 233.078 94.505 232.898C94.0427 232.718 93.118 232.359 92.5063 232.564C91.7309 231.82 92.0294 231.051 92.3281 230.283C92.6267 229.514 93.3877 228.925 93.0746 228.361C93.0602 227.029 93.2095 226.645 94.4329 226.235C95.0446 226.031 95.1939 225.646 95.3432 225.262C96.2535 224.289 97.0145 223.7 98.7002 223.47C100.848 223.42 102.833 222.422 104.518 222.192C104.518 222.192 104.518 222.192 104.056 222.013C105.742 221.783 107.278 221.938 109.113 221.324C110.948 220.71 112.634 220.48 114.319 220.25C115.543 219.841 116.617 219.816 117.676 218.459C118.587 217.485 120.123 217.64 121.197 217.615C121.809 217.41 122.734 217.77 123.345 217.565C124.419 217.54 125.643 217.131 126.567 217.49C127.03 217.67 127.03 217.67 127.641 217.465C130.401 217.21 133.623 217.135 136.532 216.496C137.144 216.292 138.218 216.267 138.68 216.446C139.143 216.626 139.143 216.626 139.754 216.421C144.498 215.169 149.719 215.428 154.463 214.175C155.075 213.97 155.687 213.766 156.298 213.561C157.835 213.716 159.058 213.306 159.968 212.333C161.341 211.539 162.565 211.13 164.563 211.464C166.1 211.619 167.174 211.594 168.397 211.185C170.232 210.571 172.529 210.137 174.827 209.702C176.05 209.293 177.274 208.884 178.184 207.91C177.871 207.346 177.408 207.167 176.797 207.372C174.649 207.422 172.501 207.471 170.203 207.906C168.517 208.135 166.369 208.185 164.684 208.415C164.072 208.62 162.536 208.465 161.611 208.106C160.224 207.567 159.15 207.592 158.076 207.617C157.002 207.642 156.39 207.847 155.316 207.872C154.854 207.692 154.242 207.897 153.929 207.333C153.153 206.589 152.079 206.614 151.781 207.383C150.721 208.74 148.723 208.406 147.037 208.636C145.024 206.969 142.89 208.351 141.041 207.633C140.578 207.453 140.429 207.837 139.966 207.658C135.222 208.911 130.315 209.215 125.72 210.084C125.108 210.288 124.646 210.109 124.183 209.929C120.485 208.492 116.964 209.336 113.905 210.359C113.294 210.564 113.294 210.564 112.682 210.768C110.683 210.434 108.998 210.664 107.312 210.893C104.552 211.148 102.255 211.582 99.495 211.837C97.8093 212.066 96.1237 212.296 94.751 213.09C94.6017 213.474 94.1393 213.294 93.0652 213.319C92.7522 212.755 92.9016 212.371 92.5885 211.807C92.1117 210.295 91.4856 209.167 90.2478 208.244C88.8607 207.705 89.1593 206.936 89.9203 206.347C93.8889 204.351 94.5006 204.146 99.5578 203.457C102.467 202.818 105.689 202.743 108.598 202.105C110.284 201.875 111.969 201.645 113.655 201.416C114.267 201.211 114.729 201.391 115.192 201.57C115.654 201.75 116.728 201.725 117.34 201.52C119.324 200.522 121.785 201.036 123.933 200.986C125.007 200.961 125.619 200.756 126.693 200.731C128.528 200.117 130.676 200.067 132.824 200.017C133.898 199.992 135.584 199.763 136.658 199.738C137.12 199.917 137.269 199.533 137.881 199.328C141.267 200.201 144.475 198.794 147.697 198.719C149.233 198.874 151.068 198.26 152.292 197.85C155.201 197.211 158.11 196.572 161.332 196.497C165.166 196.218 169.149 195.554 172.982 195.274C173.594 195.069 174.668 195.044 175.28 194.84C178.801 193.996 181.71 193.357 185.543 193.078C187.229 192.848 188.602 192.054 189.661 190.697C189.811 190.313 189.96 189.928 189.647 189.364C189.334 188.8 189.021 188.236 188.708 187.673C181.652 188.027 174.447 188.766 167.391 189.121C166.317 189.146 165.705 189.35 164.631 189.375C162.334 189.81 159.574 190.064 156.814 190.319C154.054 190.574 151.757 191.008 148.997 191.263C148.386 191.467 147.312 191.492 146.849 191.313C141.479 191.438 136.571 191.742 131.514 192.431C129.217 192.866 127.069 192.916 124.921 192.966C122.161 193.22 119.863 193.655 117.104 193.909C114.344 194.164 112.047 194.598 109.138 195.237C107.452 195.467 105.766 195.697 104.543 196.106C103.44 193.466 102.977 193.286 100.666 192.388C99.741 192.029 99.2786 191.849 98.2046 191.874C95.7579 192.693 92.8344 191.999 90.537 192.433C89.3137 192.843 87.6279 193.072 86.7176 194.045C85.9567 194.634 84.7333 195.044 83.9724 195.633C82.1085 193.582 82.0941 192.249 84.0784 191.251C84.6901 191.046 85.3017 190.841 85.9134 190.637C86.6744 190.048 87.1367 190.228 88.2108 190.203C89.7472 190.357 90.8212 190.332 91.5822 189.743C92.8056 189.334 93.5666 188.745 94.9537 189.284C95.8784 189.643 96.7887 188.67 97.4003 188.465C98.1613 187.876 99.2353 187.851 100.16 188.211C100.622 188.39 101.234 188.186 101.234 188.186C102.607 187.392 104.143 187.547 105.829 187.317C108.439 187.447 110.886 186.628 113.183 186.194C114.407 185.785 115.779 184.991 117.152 184.197C117.764 183.993 117.913 183.608 118.525 183.404C120.822 182.969 123.283 183.483 125.744 183.997C126.669 184.357 127.594 184.716 128.205 184.511C129.742 184.666 131.741 185 133.576 184.386C135.873 183.952 138.633 183.697 141.243 183.827C142.929 183.597 144.465 183.752 146.151 183.522C147.837 183.293 149.373 183.447 151.059 183.218C152.745 182.988 154.43 182.758 155.803 181.965C156.415 181.76 156.713 180.991 156.863 180.607C154.238 179.145 151.94 179.579 149.792 179.629C149.181 179.834 148.107 179.859 147.644 179.679C147.033 179.884 146.57 179.704 146.108 179.525C146.406 178.756 146.705 177.987 146.854 177.603C148.54 177.374 150.226 177.144 151.911 176.914C153.135 176.505 154.835 177.608 156.208 176.814C158.206 177.149 159.728 175.971 161.876 175.921C164.024 175.871 166.023 176.205 167.709 175.975C169.395 175.746 171.08 175.516 172.766 175.286C173.378 175.082 173.989 174.877 174.452 175.057C176.45 175.391 177.823 174.597 178.883 173.24C178.57 172.676 178.719 172.292 178.555 171.343C179.466 170.37 180.54 170.345 181.763 169.936C182.375 169.731 182.986 169.527 183.449 169.706C184.523 169.681 184.821 168.913 184.658 167.964C181.72 165.938 181.72 165.938 178.825 167.91C181.137 168.808 180.063 168.833 178.989 168.858ZM591.868 356.699L591.718 357.084C591.256 356.904 591.405 356.52 591.868 356.699C592.479 356.495 592.479 356.495 592.479 356.495C592.017 356.315 591.868 356.699 591.868 356.699ZM552.757 188.908C551.833 188.549 551.37 188.369 550.445 188.01C549.983 187.83 549.371 188.035 549.222 188.419C549.073 188.803 549.535 188.983 549.998 189.163C551.235 190.086 552.309 190.061 552.757 188.908C553.22 189.088 553.22 189.088 553.369 188.703C553.22 189.088 553.22 189.088 552.757 188.908ZM102.242 366.385C102.854 366.18 103.317 366.36 103.928 366.155C106.375 365.336 108.21 364.722 110.657 363.904C113.715 362.881 116.46 361.293 120.145 361.398C121.219 361.373 122.591 360.579 123.815 360.17C124.426 359.965 125.188 359.377 125.799 359.172C128.858 358.149 131.766 357.51 135.287 356.666C135.899 356.461 136.048 356.077 136.809 355.488C136.347 355.309 135.422 354.949 135.422 354.949C134.811 355.154 134.199 355.359 133.587 355.563C132.826 356.152 132.214 356.357 131.14 356.382C130.066 356.407 129.455 356.611 128.381 356.636C126.695 356.866 125.009 357.096 123.174 357.71C122.115 359.067 120.578 358.913 118.893 359.142C118.43 358.963 117.819 359.167 117.669 359.552C113.388 360.984 109.106 362.417 105.286 364.029C104.675 364.233 103.914 364.822 103.153 365.411C102.079 365.436 102.392 366 102.242 366.385C101.631 366.589 101.631 366.589 102.242 366.385C102.093 366.769 101.631 366.589 102.242 366.385ZM254.585 460.517C254.585 460.517 254.436 460.902 254.585 460.517C254.585 460.517 254.436 460.902 254.585 460.517C255.659 460.492 256.271 460.288 257.345 460.263C258.27 460.622 258.881 460.417 259.493 460.213C263.476 459.549 267.623 459.833 271.77 460.117C272.232 460.297 272.844 460.092 273.455 459.888C274.679 459.478 275.753 459.453 276.976 459.044C278.2 458.635 278.2 458.635 277.872 456.738C277.41 456.559 276.485 456.199 276.023 456.02C275.56 455.84 275.098 455.66 274.949 456.045C274.038 457.018 272.04 456.684 270.816 457.093C266.52 457.193 262.224 457.293 257.928 457.393C256.854 457.418 256.242 457.623 255.168 457.648C254.556 457.852 254.094 457.673 253.482 457.877C252.871 458.082 252.721 458.466 253.034 459.03C254.123 460.338 254.585 460.517 254.585 460.517ZM358.829 166.194C360.053 165.785 361.739 165.555 362.962 165.146C363.574 164.942 364.185 164.737 364.647 164.916C367.72 165.226 370.316 164.023 372.763 163.204C373.837 163.179 374.598 162.59 375.672 162.565C378.745 162.875 381.803 161.851 384.712 161.212C386.398 160.983 388.233 160.369 390.068 159.755C390.68 159.55 390.829 159.166 390.516 158.602C390.665 158.218 389.89 157.474 389.278 157.679C387.742 157.524 385.594 157.574 383.908 157.804C382.685 158.213 380.999 158.443 379.313 158.672C377.628 158.902 376.255 159.696 374.718 159.541C374.256 159.361 373.033 159.771 372.421 159.975C371.048 160.769 369.974 160.794 368.438 160.639C367.364 160.664 366.902 160.485 365.678 160.894C363.843 161.508 361.546 161.942 359.711 162.556C359.099 162.761 358.488 162.965 358.025 162.786C354.803 162.861 352.043 163.115 348.821 163.19C346.673 163.24 344.376 163.675 342.228 163.725C340.542 163.954 338.394 164.004 337.021 164.798C335.186 165.412 333.5 165.642 331.815 165.871C328.906 166.51 325.997 167.149 323.237 167.404C320.94 167.838 319.254 168.068 317.106 168.118C316.032 168.143 314.958 168.168 314.659 168.936C314.047 169.141 313.436 169.346 312.973 169.166C309.751 169.241 306.216 168.752 303.471 170.339C302.859 170.544 302.859 170.544 302.247 170.749C299.488 171.003 296.579 171.642 293.819 171.897C293.207 172.102 292.596 172.306 291.984 172.511C292.297 173.075 292.61 173.639 293.072 173.818C295.534 174.332 297.682 174.282 299.979 173.848C303.962 173.184 307.333 172.725 311.63 172.625C314.852 172.55 317.611 172.295 320.207 171.092C322.192 170.094 324.34 170.044 326.801 170.558C327.726 170.917 328.8 170.892 329.561 170.303C330.784 169.894 331.246 170.074 332.32 170.049C334.469 169.999 336.617 169.948 338.302 169.719C340.137 169.105 341.972 168.491 344.27 168.057C346.567 167.622 349.327 167.368 351.774 166.549C353.772 166.883 356.532 166.629 358.829 166.194ZM186.55 172.68C186.565 174.013 187.027 174.193 187.952 174.552C190.413 175.066 193.336 175.759 195.932 174.557C197.305 173.763 198.991 173.533 200.84 174.252C203.152 175.15 204.525 174.356 206.36 173.743C206.971 173.538 207.121 173.154 207.121 173.154C207.27 172.769 207.419 172.385 207.419 172.385C206.957 172.205 206.644 171.641 206.644 171.641C203.422 171.716 200.2 171.791 196.978 171.866C196.366 172.071 195.904 171.892 195.441 171.712C192.219 171.787 189.459 172.042 186.55 172.68ZM201.298 188.141C202.237 189.833 202.237 189.833 203.161 190.192C206.398 191.45 210.082 191.554 213.454 191.095C214.065 190.89 214.677 190.686 215.438 190.097C216.05 189.892 216.199 189.508 215.886 188.944C215.573 188.38 215.573 188.38 215.26 187.816C213.112 187.866 211.113 187.532 208.965 187.582C206.355 187.452 204.057 187.886 201.298 188.141ZM256.647 452.472C257.287 454.933 257.287 454.933 259.898 455.062C261.434 455.217 262.97 455.372 264.656 455.142C266.342 454.912 268.49 454.862 270.176 454.633C271.25 454.608 272.011 454.019 271.698 453.455C271.385 452.891 270.609 452.147 269.535 452.172C269.073 451.993 268.923 452.377 268.461 452.197C267.387 452.222 266.313 452.247 264.627 452.477C262.942 452.707 261.256 452.936 259.556 451.833C258.482 451.858 257.408 451.883 256.647 452.472ZM212.939 171.876C213.252 172.44 213.714 172.619 214.027 173.183C215.727 174.286 217.264 174.441 218.95 174.211C219.561 174.006 220.635 173.981 221.098 174.161C222.485 174.7 223.708 174.291 224.782 174.266L225.394 174.061C225.543 173.677 225.842 172.908 225.991 172.524C225.529 172.344 224.604 171.985 224.604 171.985C222.456 172.035 220.919 171.88 218.771 171.93C217.697 171.955 216.161 171.801 214.938 172.21C214.162 171.466 213.55 171.671 212.939 171.876ZM115.945 384.535C116.571 385.663 117.197 386.791 117.972 387.534C119.971 387.869 120.881 386.896 121.791 385.922C122.09 385.154 122.389 384.385 121.613 383.642C120.838 382.898 120.063 382.154 118.989 382.179C117.765 382.589 116.855 383.562 115.945 384.535ZM143.041 364.102C140.893 364.152 139.506 363.613 138.134 364.407C136.91 364.816 135.687 365.225 134.762 364.866C132.45 363.968 130.153 364.402 128.318 365.016C128.318 365.016 128.169 365.4 127.557 365.605C128.019 365.784 128.482 365.964 128.482 365.964C130.63 365.914 132.166 366.069 133.852 365.839C134.926 365.814 136.149 365.405 137.074 365.764C138.61 365.919 139.834 365.509 141.519 365.28C142.131 365.075 142.28 364.691 143.041 364.102ZM378.225 157.365C376.525 156.262 375.138 155.723 373.452 155.953C372.229 156.362 371.468 156.951 371.02 158.104C371.482 158.284 372.407 158.643 373.018 158.438C374.555 158.593 375.778 158.183 378.225 157.365ZM524.789 185.561C523.551 184.637 522.015 184.483 520.792 184.892C520.329 184.712 520.493 185.661 520.344 186.045C520.194 186.429 520.507 186.993 521.119 186.788C522.506 187.327 523.73 186.918 524.789 185.561ZM533.752 191.255C533.901 190.87 533.126 190.127 532.664 189.947C532.052 190.152 531.44 190.356 530.829 190.561C530.217 190.766 530.381 191.714 530.843 191.894C532.081 192.817 533.304 192.407 533.752 191.255ZM239.477 170.687C238.239 169.763 237.016 170.173 235.479 170.018C235.017 169.838 233.943 169.863 233.793 170.248C233.957 171.196 234.718 170.607 235.181 170.787C237.492 171.685 238.716 171.276 239.477 170.687ZM527.104 300.133C526.03 300.158 525.567 299.978 524.956 300.183L524.657 300.951C524.657 300.951 524.97 301.515 525.433 301.695C526.357 302.054 526.656 301.285 527.104 300.133ZM621.916 382.086C622.229 382.65 622.542 383.214 623.004 383.393C623.467 383.573 623.929 383.753 624.079 383.368C624.228 382.984 624.377 382.6 624.377 382.6C624.377 382.6 624.064 382.036 623.602 381.856C622.99 382.061 622.528 381.881 621.916 382.086ZM214.133 168.801C213.209 168.442 212.284 168.083 210.911 168.876C212.91 169.211 212.91 169.211 214.133 168.801ZM231.824 172.579C231.197 171.451 230.123 171.476 229.512 171.68C229.512 171.68 229.362 172.065 229.213 172.449C229.213 172.449 229.526 173.013 229.989 173.192C230.6 172.988 231.212 172.783 231.824 172.579ZM295.105 163.108C295.254 162.724 295.254 162.724 294.792 162.544L294.33 162.365L294.18 162.749C294.643 162.928 294.643 162.929 295.105 163.108ZM260.803 467.799L260.191 468.003C260.191 468.003 260.191 468.003 260.654 468.183C260.654 468.183 260.654 468.183 260.803 467.799C261.116 468.363 260.803 467.799 260.803 467.799ZM570.794 182.205C570.794 182.205 570.332 182.025 570.183 182.409L570.033 182.794L570.496 182.973C571.107 182.769 571.107 182.769 570.794 182.205ZM529.143 190.791C528.994 191.175 528.994 191.175 529.143 190.791C528.531 190.995 528.531 190.995 528.531 190.995L528.994 191.175C529.456 191.355 529.456 191.355 529.143 190.791ZM157.101 301.892L156.639 301.712C156.639 301.712 156.639 301.712 156.177 301.533C156.639 301.712 156.49 302.096 157.101 301.892C156.952 302.276 157.101 301.892 157.101 301.892Z" fill="#F4F5F7"/>
<path d="M117.947 172.564C115.65 172.998 113.814 173.612 111.503 172.714C110.578 172.354 109.817 172.943 108.743 172.968C105.983 173.223 103.223 173.478 100.001 173.553C98.9273 173.578 98.1664 174.167 96.9286 173.243L97.0779 172.859C100.599 172.015 103.97 171.556 107.64 170.328C108.565 170.687 109.803 171.611 111.026 171.201C113.636 171.331 116.097 171.845 117.947 172.564Z" fill="#F4F5F7"/>
<path d="M580.601 166.553C581.063 166.733 581.525 166.913 581.525 166.913C582.464 168.604 580.793 170.167 581.732 171.858C580.21 173.036 579.613 174.573 577.778 175.187C577.465 174.624 577.465 174.623 577.614 174.239C579.435 172.293 579.868 169.807 580.601 166.553Z" fill="#F4F5F7"/>
<path d="M557.704 163.85C560.016 164.748 561.716 165.851 563.103 166.39C563.729 167.518 563.58 167.902 562.356 168.311C560.969 167.772 559.582 167.233 558.195 166.694C557.882 166.13 557.718 165.182 557.704 163.85Z" fill="#F4F5F7"/>
<path d="M585.531 267.546C584.933 269.083 584.486 270.236 583.113 271.029C582.487 269.902 581.861 268.774 580.623 267.85C582.294 266.288 583.383 267.596 585.531 267.546Z" fill="#F4F5F7"/>
<path d="M100.089 380.144C100.089 380.144 100.239 379.76 99.7762 379.58C99.9255 379.196 99.7618 378.248 100.836 378.223C101.298 378.402 101.761 378.582 101.761 378.582C102.536 379.326 102.387 379.71 101.626 380.299C101.327 381.067 100.402 380.708 100.089 380.144Z" fill="#F4F5F7"/>
<path d="M549.425 164.613C550.2 165.357 550.513 165.921 551.139 167.049C549.752 166.51 548.827 166.15 547.903 165.791C547.888 164.459 549.126 165.382 549.425 164.613Z" fill="#F4F5F7"/>
<path d="M105.276 391.448C105.44 392.396 105.29 392.781 105.141 393.165C104.529 393.37 103.918 393.574 103.604 393.01C102.978 391.883 104.052 391.858 105.276 391.448Z" fill="#F4F5F7"/>
<path d="M280.218 163.074C281.441 162.664 282.515 162.639 283.589 162.614L283.902 163.178C283.753 163.563 283.141 163.767 282.843 164.536C282.067 163.792 281.143 163.433 280.218 163.074Z" fill="#F4F5F7"/>
<path d="M393.054 152.069C392.144 153.042 391.219 152.683 389.534 152.912C390.444 151.939 391.518 151.914 393.054 152.069Z" fill="#F4F5F7"/>
<path d="M288.81 162.874C288.198 163.078 287.274 162.719 286.349 162.36C287.423 162.335 288.035 162.13 288.796 161.541C288.497 162.31 288.81 162.874 288.81 162.874Z" fill="#F4F5F7"/>
<path d="M575.329 303.39C576.254 303.749 576.567 304.313 576.268 305.081C576.268 305.081 576.119 305.466 575.656 305.286C575.194 305.106 575.194 305.106 575.343 304.722C575.493 304.338 575.18 303.774 575.329 303.39Z" fill="#F4F5F7"/>
<path d="M163.605 463.207C162.993 463.411 162.844 463.796 162.069 463.052L162.218 462.668C162.979 462.079 163.441 462.258 163.605 463.207Z" fill="#F4F5F7"/>
<path d="M580.353 271.284C580.055 272.053 579.756 272.821 578.682 272.846C578.518 271.898 580.055 272.053 580.353 271.284C580.204 271.668 580.204 271.668 580.353 271.284Z" fill="#F4F5F7"/>
<path d="M600.046 346.608C600.195 346.224 600.494 345.455 601.105 345.251C601.269 346.199 600.658 346.403 600.046 346.608Z" fill="#F4F5F7"/>
<path d="M90.7265 365.891C91.1889 366.071 91.1888 366.071 91.6511 366.25L91.5018 366.634L91.0396 366.455C91.0396 366.455 91.0396 366.455 90.7265 365.891Z" fill="#F4F5F7"/>
<path d="M582.877 263.419C582.877 263.419 583.339 263.598 582.877 263.419C583.19 263.982 583.041 264.367 583.041 264.367C582.429 264.571 582.116 264.007 582.265 263.623C582.265 263.623 582.877 263.419 582.877 263.419Z" fill="#F4F5F7"/>
<path d="M146.435 181.421C146.734 180.653 147.345 180.448 147.807 180.628C147.658 181.012 146.584 181.037 146.435 181.421Z" fill="#F4F5F7"/>
<path d="M354.403 154.302C354.254 154.687 353.955 155.455 353.031 155.096C353.642 154.891 354.254 154.687 354.403 154.302Z" fill="#F4F5F7"/>
<path d="M147.808 180.628C148.27 180.807 148.882 180.603 149.344 180.782C148.732 180.987 148.27 180.807 147.808 180.628Z" fill="#F4F5F7"/>
<path d="M630.344 380.938L630.494 380.553C630.494 380.553 630.494 380.553 630.957 380.733C630.494 380.553 630.344 380.938 630.344 380.938Z" fill="#F4F5F7"/>
<path d="M630.345 380.938C629.882 380.758 629.27 380.963 628.808 380.783C629.27 380.963 629.882 380.758 630.345 380.938Z" fill="#F4F5F7"/>
<path d="M149.607 318.441C149.145 318.261 149.607 318.441 149.607 318.441C148.995 318.645 148.995 318.645 148.533 318.466C149.144 318.261 149.145 318.261 149.607 318.441Z" fill="#F4F5F7"/>
<path d="M427.139 153.37C427.139 153.37 427.288 152.985 427.751 153.165C427.751 153.165 427.601 153.549 428.064 153.729C427.601 153.549 427.139 153.37 427.139 153.37Z" fill="#F4F5F7"/>
<path d="M393.666 151.865C394.279 151.659 394.129 152.045 393.666 151.865C394.279 151.659 394.279 151.659 394.129 152.045C394.279 151.659 394.129 152.045 393.666 151.865Z" fill="#F4F5F7"/>
<path d="M576.25 274.997C576.399 274.612 577.01 274.408 577.16 274.023C577.01 274.408 576.861 274.792 576.25 274.997Z" fill="#F4F5F7"/>
<path d="M471.902 162.8C472.051 162.416 472.513 162.595 472.662 162.211C472.513 162.595 472.513 162.595 471.902 162.8Z" fill="#F4F5F7"/>
<path d="M403.78 150.488L404.393 150.282L403.78 150.488Z" fill="#F4F5F7"/>
<path d="M393.666 151.864C393.054 152.069 393.054 152.069 392.443 152.273C393.054 152.069 393.666 151.864 393.666 151.864Z" fill="#F4F5F7"/>
<path d="M386.625 153.551C387.087 153.731 387.236 153.347 387.699 153.526C387.236 153.347 386.774 153.167 386.625 153.551Z" fill="#F4F5F7"/>
<path d="M383.253 154.011C383.865 153.806 383.865 153.806 384.476 153.602C383.865 153.806 383.865 153.806 383.253 154.011Z" fill="#F4F5F7"/>
<path d="M369.604 154.9L369.454 155.285C369.141 154.72 369.604 154.9 369.604 154.9Z" fill="#F4F5F7"/>
<path d="M363.295 153.334L362.682 153.539L363.295 153.334Z" fill="#F4F5F7"/>
<path d="M325.597 158.59C326.059 158.769 326.059 158.769 326.522 158.949C326.209 158.385 326.209 158.385 325.597 158.59Z" fill="#F4F5F7"/>
<path d="M568.081 257.669L567.47 257.874C567.619 257.49 567.619 257.49 567.768 257.106C567.619 257.49 568.081 257.669 568.081 257.669Z" fill="#F4F5F7"/>
<path d="M580.204 271.669C579.891 271.104 579.891 271.104 580.204 271.669C579.891 271.104 579.891 271.104 580.204 271.669Z" fill="#F4F5F7"/>
<path d="M290.795 161.876C290.332 161.696 290.332 161.696 290.795 161.876C290.182 162.081 290.182 162.081 290.795 161.876C290.645 162.261 290.182 162.081 290.795 161.876Z" fill="#F4F5F7"/>
<path d="M599.434 346.812C600.046 346.608 600.046 346.608 600.658 346.403C600.046 346.608 599.434 346.812 599.434 346.812C599.434 346.812 598.972 346.633 599.434 346.812Z" fill="#F4F5F7"/>
<path d="M118.62 291.364L118.007 291.569C118.47 291.749 118.47 291.749 118.62 291.364Z" fill="#F4F5F7"/>
<path d="M117.859 291.953L117.246 292.158C117.246 292.158 117.396 291.773 117.859 291.953Z" fill="#F4F5F7"/>
<path d="M66.2847 305.53C66.4344 305.144 66.2847 305.53 66.2847 305.53C66.2847 305.53 66.7478 305.709 66.2847 305.53Z" fill="#F4F5F7"/>
<path d="M65.2107 305.555L65.8235 305.35C65.8235 305.35 65.6738 305.735 65.2107 305.555Z" fill="#F4F5F7"/>
<path d="M392.61 507.953C391.998 508.158 391.998 508.158 391.386 508.362C391.536 507.978 391.536 507.978 391.685 507.594C392.147 507.773 392.147 507.773 392.61 507.953Z" fill="#F4F5F7"/>
<path d="M469.483 166.285C469.633 165.9 469.633 165.9 470.096 166.08C470.096 166.08 470.096 166.08 469.946 166.465C469.946 166.465 469.947 166.465 469.483 166.285Z" fill="#F4F5F7"/>
</svg>
