<svg width="103" height="77" viewBox="0 0 103 77" fill="none" xmlns="http://www.w3.org/2000/svg">
<path d="M32.8036 30.9141L46.0067 3.86339C46.7585 2.25353 45.5777 0.32103 43.8601 0.32103H34.8433C34.0916 0.32103 33.3406 0.643005 32.9115 1.28696L4.57265 39.5015C1.56701 43.9028 0.0641963 49.3772 0.708261 55.1741C1.88909 66.5524 11.4427 75.5695 22.9285 76.1062C36.4537 76.7502 47.6177 66.0157 47.6177 52.5979C47.5099 42.8294 41.3909 34.3495 32.8032 30.9143L32.8036 30.9141Z" fill="#223865"/>
<path d="M87.7638 30.9141L100.967 3.86338C101.719 2.25353 100.538 0.321022 98.8202 0.321022H89.8035C89.0517 0.321022 88.3007 0.642997 87.8717 1.28695L59.5328 39.5015C56.5272 43.9028 55.0243 49.3772 55.6684 55.1741C56.8492 66.5524 66.4028 75.5695 77.8887 76.1062C91.4138 76.7502 102.578 66.0157 102.578 52.5979C102.469 42.8293 96.3503 34.3495 87.7634 30.9143L87.7638 30.9141Z" fill="#223865"/>
</svg>
