<svg width="19" height="19" viewBox="0 0 19 19" fill="none" xmlns="http://www.w3.org/2000/svg">
<path fill-rule="evenodd" clip-rule="evenodd" d="M5.07098 16.4839C5.74086 16.4839 6.28595 17.0281 6.28595 17.6979C6.28595 18.3678 5.74086 18.9129 5.07098 18.9129C4.4011 18.9129 3.85694 18.3678 3.85694 17.6979C3.85694 17.0281 4.4011 16.4839 5.07098 16.4839ZM15.6542 16.4839C16.325 16.4839 16.8701 17.0281 16.8701 17.6979C16.8701 18.3678 16.325 18.9129 15.6542 18.9129C14.9843 18.9129 14.4402 18.3678 14.4402 17.6979C14.4402 17.0281 14.9843 16.4839 15.6542 16.4839ZM1.05941 0.588491L3.01087 0.926244C3.32517 0.981598 3.56441 1.24242 3.59162 1.56141L3.8121 4.18932L4.63195 4.18967C4.76573 4.18973 4.8981 4.18979 5.02906 4.18985L6.53422 4.19056C6.6542 4.19062 6.77284 4.19068 6.89015 4.19074L8.55207 4.19165C8.65648 4.19172 8.75964 4.19178 8.86156 4.19184L10.0262 4.19258C10.1184 4.19264 10.2095 4.19271 10.2995 4.19277L11.3238 4.19352C11.4047 4.19359 11.4844 4.19365 11.5631 4.19371L12.4563 4.19448C12.5265 4.19455 12.5957 4.19461 12.6639 4.19467L13.2509 4.19526C13.3132 4.19532 13.3745 4.19539 13.4349 4.19545L14.1147 4.19624C14.1677 4.19631 14.2198 4.19638 14.2711 4.19644L14.8451 4.19724C14.8896 4.19731 14.9332 4.19738 14.9761 4.19745L15.3409 4.19805C15.3791 4.19812 15.4166 4.19819 15.4533 4.19826L15.8597 4.19908C15.8907 4.19915 15.9211 4.19922 15.9509 4.19929L16.201 4.19992C16.2268 4.19999 16.2521 4.20005 16.2768 4.20013L16.5449 4.20097C16.565 4.20104 16.5845 4.20111 16.6036 4.20118L16.761 4.20183C16.777 4.2019 16.7925 4.20197 16.8075 4.20204L16.9668 4.20291C16.9784 4.20298 16.9895 4.20305 17.0003 4.20313L17.0871 4.20379C17.0956 4.20386 17.1039 4.20393 17.1117 4.20401L17.1742 4.20467C17.1803 4.20475 17.186 4.20482 17.1915 4.2049L17.234 4.20557C17.238 4.20564 17.2418 4.20572 17.2454 4.20579L17.2723 4.20648C17.2747 4.20655 17.277 4.20663 17.2791 4.2067L17.2986 4.20762C17.2998 4.2077 17.3009 4.20778 17.302 4.20785C17.3111 4.20871 17.3124 4.20886 17.3138 4.20902C17.8364 4.28501 18.2961 4.55803 18.6094 4.97835C18.9228 5.39772 19.0542 5.91467 18.9791 6.43256L18.0887 12.5853C17.9208 13.7562 16.9038 14.639 15.7217 14.639H5.47553C4.23992 14.639 3.19382 13.6746 3.09343 12.4408L2.23404 2.22003L0.820167 1.97609C0.436442 1.90854 0.180312 1.54546 0.245986 1.16173C0.313537 0.778008 0.684127 0.528446 1.05941 0.588491ZM4.44373 5.59694L3.93031 5.59662L4.49605 12.3254C4.53733 12.8433 4.96046 13.2317 5.47741 13.2317H15.7198C16.2086 13.2317 16.6261 12.8677 16.6955 12.3845L17.5868 6.23085C17.6074 6.08449 17.5708 5.93813 17.4817 5.81991C17.3935 5.70076 17.2641 5.62383 17.1177 5.60319C17.1109 5.60345 17.0947 5.60368 17.0695 5.6039L16.9675 5.60448C16.9462 5.60457 16.9227 5.60465 16.8971 5.60473L16.3656 5.60554C16.3208 5.60557 16.2742 5.6056 16.2258 5.60562L14.9761 5.60557C14.9064 5.60554 14.8354 5.60551 14.7631 5.60548L13.3369 5.60462C13.2514 5.60455 13.1651 5.60449 13.0778 5.60442L12.2708 5.60378C12.1789 5.6037 12.0863 5.60362 11.9931 5.60354L11.1383 5.60279C11.0417 5.6027 10.9448 5.60261 10.8474 5.60253L10.2585 5.60198C10.1598 5.60189 10.0607 5.6018 9.96137 5.60171L9.06285 5.60087C8.96266 5.60078 8.86241 5.60068 8.76216 5.60059L8.16111 5.60003C8.06108 5.59994 7.96117 5.59984 7.86142 5.59975L7.26547 5.59921C7.16664 5.59912 7.06809 5.59904 6.96989 5.59895L6.09688 5.5982C6.00126 5.59812 5.90615 5.59804 5.81161 5.59796L4.70835 5.59712C4.61932 5.59706 4.53109 5.597 4.44373 5.59694ZM14.2129 7.6572C14.6013 7.6572 14.9166 7.97243 14.9166 8.36085C14.9166 8.74927 14.6013 9.0645 14.2129 9.0645H11.6122C11.2229 9.0645 10.9086 8.74927 10.9086 8.36085C10.9086 7.97243 11.2229 7.6572 11.6122 7.6572H14.2129Z" fill="#223865"/>
</svg>
