<svg width="23" height="10" viewBox="0 0 23 10" fill="none" xmlns="http://www.w3.org/2000/svg">
<path d="M1.2605 4.42651C0.91532 4.42651 0.635498 4.70634 0.635498 5.05151C0.635498 5.39669 0.91532 5.67651 1.2605 5.67651L1.2605 4.42651ZM21.9797 5.49346C22.2238 5.24938 22.2238 4.85365 21.9797 4.60957L18.0022 0.632099C17.7581 0.388021 17.3624 0.388021 17.1183 0.632099C16.8742 0.876176 16.8742 1.2719 17.1183 1.51598L20.6539 5.05152L17.1183 8.58705C16.8742 8.83113 16.8742 9.22685 17.1183 9.47093C17.3624 9.71501 17.7581 9.71501 18.0022 9.47093L21.9797 5.49346ZM1.2605 5.67651L21.5377 5.67652L21.5377 4.42652L1.2605 4.42651L1.2605 5.67651Z" fill="#8793AB"/>
</svg>
