<svg width="30" height="30" viewBox="0 0 30 30" fill="none" xmlns="http://www.w3.org/2000/svg">
<path d="M6.29856 14.8195L8.5745 14.8192C8.73466 14.8192 8.79131 14.9266 8.70144 15.0597L4.53541 21.1604C4.44577 21.2928 4.29904 21.2928 4.20826 21.1607L0.0431026 15.0588C-0.0476717 14.9264 0.00874982 14.8192 0.169142 14.8192H2.44759C2.47079 11.2977 4.0078 7.96016 6.67436 5.65149L9.19509 8.56261C7.37389 10.1392 6.32195 12.4161 6.29853 14.8194L6.29856 14.8195Z" fill="#223865"/>
<path d="M14.7586 6.52253V8.7987C14.7586 8.95886 14.6512 9.01528 14.5186 8.92496L8.41783 4.7594C8.2852 4.66931 8.2852 4.52257 8.41783 4.43225L14.5186 0.266856C14.6517 0.176764 14.759 0.232957 14.759 0.393121L14.7588 2.67133C18.2806 2.69454 21.6178 4.23202 23.9265 6.89858L21.0156 9.41907C19.4386 7.59811 17.1615 6.54546 14.7588 6.52251L14.7586 6.52253Z" fill="#223865"/>
<path d="M29.1837 14.9814L26.9054 14.9812C26.8822 18.5032 25.3448 21.8414 22.6782 24.15L20.1575 21.2382C21.9787 19.6616 23.0315 17.385 23.0543 14.9808H20.7786C20.6184 14.981 20.5617 14.8739 20.6523 14.7415L24.8177 8.64132C24.9078 8.50914 25.0547 8.50914 25.1451 8.64132L29.3104 14.7415C29.4005 14.8736 29.3439 14.9815 29.1837 14.9815L29.1837 14.9814Z" fill="#223865"/>
<path d="M14.5955 23.2783L14.5953 21.0021C14.5953 20.8424 14.7029 20.7853 14.8351 20.8759L20.9364 25.0413C21.0688 25.1316 21.0688 25.2788 20.9364 25.3686L14.8351 29.5338C14.7029 29.6241 14.5953 29.5677 14.5953 29.4075V27.1293C11.0742 27.1061 7.73687 25.5684 5.42761 22.9025L8.33919 20.3818C9.91577 22.2037 12.1919 23.2552 14.5954 23.2784L14.5955 23.2783Z" fill="#223865"/>
</svg>
