<svg width="23" height="30" viewBox="0 0 23 30" fill="none" xmlns="http://www.w3.org/2000/svg">
<path d="M13.4404 4.47343C13.255 4.26951 12.9922 4.15335 12.7166 4.15335C12.4411 4.15335 12.1782 4.2695 11.9929 4.47343C11.9929 4.47343 11.6603 4.84504 11.1322 5.45158H11.132C10.0779 3.73396 8.89404 2.09883 7.59121 0.560856C7.40541 0.343613 7.13379 0.218506 6.84776 0.218506C6.56173 0.218506 6.29013 0.343613 6.10432 0.560856C5.57616 1.21632 0.9789 6.65497 0.9789 9.75541C0.96973 10.8888 1.27475 12.0023 1.86012 12.9726C2.4455 13.9429 3.28827 14.7321 4.29481 15.2527C3.5086 16.6488 3.04418 18.2026 2.93524 19.8011C2.93524 22.3953 3.96582 24.8833 5.80025 26.7174C7.63447 28.5518 10.1224 29.5824 12.7166 29.5824C15.3107 29.5824 17.7988 28.5518 19.6329 26.7174C21.4673 24.8832 22.4979 22.3952 22.4979 19.8011C22.4979 14.7147 14.3692 5.5101 13.4403 4.47326L13.4404 4.47343ZM2.93513 9.75541C2.93513 8.19038 5.09688 4.94283 6.8477 2.74184C8.59852 4.94266 10.7603 8.19021 10.7603 9.75541C10.7972 10.8287 10.4053 11.8724 9.67124 12.6562C8.93696 13.4398 7.92109 13.8989 6.8477 13.9321C5.77437 13.899 4.75844 13.4398 4.02416 12.6562C3.29011 11.8724 2.89818 10.8287 2.93513 9.75541ZM12.7166 27.6264C10.6413 27.6264 8.65095 26.8019 7.18329 25.3345C5.71585 23.8668 4.89141 21.8765 4.89141 19.8012C5.0198 18.3949 5.46824 17.0364 6.20207 15.8299C6.41582 15.8642 6.63132 15.8838 6.8477 15.8886C8.43632 15.8552 9.94674 15.1926 11.0472 14.0463C12.1476 12.9 12.748 11.3639 12.7166 9.77524C12.6694 8.94382 12.46 8.12984 12.1004 7.37879L12.7166 6.61595C15.4357 9.79492 20.5417 16.4561 20.5417 19.8013C20.5417 21.8766 19.7173 23.8669 18.2498 25.3346C16.7822 26.802 14.7919 27.6265 12.7166 27.6265V27.6264Z" fill="#223865"/>
</svg>
