<svg width="33" height="34" viewBox="0 0 33 34" fill="none" xmlns="http://www.w3.org/2000/svg">
<circle cx="16.5026" cy="16.8892" r="16.1495" fill="#223865"/>
<path d="M16.5026 11.9005C18.1274 11.9005 18.3201 11.9066 18.9621 11.936C20.6113 12.011 21.3816 12.7935 21.4567 14.4305C21.4861 15.072 21.4917 15.2648 21.4917 16.8896C21.4917 18.5149 21.4856 18.7071 21.4567 19.3486C21.3811 20.9841 20.6128 21.7681 18.9621 21.8432C18.3201 21.8726 18.1284 21.8787 16.5026 21.8787C14.8778 21.8787 14.6851 21.8726 14.0436 21.8432C12.3903 21.7676 11.6241 20.9816 11.549 19.3481C11.5196 18.7066 11.5135 18.5144 11.5135 16.8891C11.5135 15.2642 11.5201 15.072 11.549 14.43C11.6246 12.7935 12.3929 12.0105 14.0436 11.9355C14.6856 11.9066 14.8778 11.9005 16.5026 11.9005ZM16.5026 10.8036C14.8499 10.8036 14.643 10.8107 13.9939 10.8401C11.7838 10.9415 10.5556 12.1678 10.4541 14.3798C10.4242 15.0294 10.4171 15.2364 10.4171 16.8891C10.4171 18.5418 10.4242 18.7492 10.4536 19.3983C10.5551 21.6084 11.7813 22.8366 13.9933 22.938C14.643 22.9674 14.8499 22.9745 16.5026 22.9745C18.1553 22.9745 18.3627 22.9674 19.0118 22.938C21.2199 22.8366 22.4511 21.6104 22.551 19.3983C22.581 18.7492 22.5881 18.5418 22.5881 16.8891C22.5881 15.2364 22.581 15.0294 22.5516 14.3803C22.4522 12.1723 21.2244 10.942 19.0123 10.8406C18.3627 10.8107 18.1553 10.8036 16.5026 10.8036V10.8036ZM16.5026 13.7642C14.7769 13.7642 13.3777 15.1633 13.3777 16.8891C13.3777 18.6148 14.7769 20.0145 16.5026 20.0145C18.2283 20.0145 19.6275 18.6153 19.6275 16.8891C19.6275 15.1633 18.2283 13.7642 16.5026 13.7642ZM16.5026 18.9176C15.3824 18.9176 14.4741 18.0098 14.4741 16.8891C14.4741 15.7688 15.3824 14.8606 16.5026 14.8606C17.6228 14.8606 18.5311 15.7688 18.5311 16.8891C18.5311 18.0098 17.6228 18.9176 16.5026 18.9176ZM19.7512 12.9107C19.3476 12.9107 19.0205 13.2378 19.0205 13.6409C19.0205 14.0441 19.3476 14.3712 19.7512 14.3712C20.1544 14.3712 20.481 14.0441 20.481 13.6409C20.481 13.2378 20.1544 12.9107 19.7512 12.9107Z" fill="white"/>
</svg>
