<svg width="19" height="19" viewBox="0 0 19 19" fill="none" xmlns="http://www.w3.org/2000/svg">
<path fill-rule="evenodd" clip-rule="evenodd" d="M8.8114 0.654541C13.5237 0.654541 17.3568 4.48759 17.3568 9.19993C17.3568 11.4232 16.5036 13.4509 15.1074 14.9728L17.8547 17.7143C18.1118 17.9715 18.1127 18.3874 17.8556 18.6445C17.7275 18.7744 17.5581 18.8385 17.3896 18.8385C17.222 18.8385 17.0535 18.7744 16.9245 18.6463L14.144 15.8735C12.6814 17.0449 10.8268 17.7462 8.8114 17.7462C4.09907 17.7462 0.265137 13.9123 0.265137 9.19993C0.265137 4.48759 4.09907 0.654541 8.8114 0.654541ZM8.8114 1.97084C4.82478 1.97084 1.58143 5.21331 1.58143 9.19993C1.58143 13.1865 4.82478 16.4299 8.8114 16.4299C12.7971 16.4299 16.0405 13.1865 16.0405 9.19993C16.0405 5.21331 12.7971 1.97084 8.8114 1.97084Z" fill="black"/>
</svg>
